# xmcd
#
# Track frame offsets: 
#        150
#        12781
#        26737
#        36772
#        52066
#        61989
#        74916
#        91367
#        103542
#        119631
#        136016
#        152141
#        156633
#
# Disc length: 2148 seconds
#
# Revision: 0
# Processed by: cddbd v1.5.2PL0 Copyright (c) Steve Scherf et al.
# Submitted via: ExactAudioCopy v0.95b3
#
DISCID=b908620d
DTITLE=Bee Gees  - Ideal - Disc 2 (Bonus)
DYEAR=1900
DGENRE=
TTITLE0=Chocolate Symphony - (Idea - CD 2 - 1968)
TTITLE1=I've Gotta Get a Message To You (Single Version) - (Idea - CD 
TTITLE1=2 - 1968)
TTITLE2=Jumbo
TTITLE3=Singer Sang His Song, The - (Idea - CD 2 - 1968)
TTITLE4=Bridges Crossing Rivers - (Idea - CD 2 - 1968)
TTITLE5=Idea (Alt.) - (Idea - CD 2 - 1968)
TTITLE6=Completely Unoriginal - (Idea - CD 2 - 1968)
TTITLE7=Kitty Can (Alt.) - (Idea - CD 2 - 1968)
TTITLE8=Come Some Christmas Eve Or Halloween - (Idea - CD 2 - 1968)
TTITLE9=Let There Be Love (Alt.) - (Idea - CD 2 - 1968)
TTITLE10=Gena's Theme - (Idea - CD 2 - 1968)
TTITLE11=Another Cold and Windy Day (Coke Spot #1) - (Idea - CD 2 - 19
TTITLE11=68)
TTITLE12=Sitting In the Meadow (Coke Spot #2) - (Idea - CD 2 - 1968)
EXTD=
EXTT0=
EXTT1=
EXTT2=
EXTT3=
EXTT4=
EXTT5=
EXTT6=
EXTT7=
EXTT8=
EXTT9=
EXTT10=
EXTT11=
EXTT12=
PLAYORDER=
